<svg data-name="YouTube Icon" xmlns="http://www.w3.org/2000/svg" viewBox="0 0 1021.45 718.42"><defs><linearGradient id="a" x1="512.5" y1="1.3" x2="512.5" y2="719.72" gradientUnits="userSpaceOnUse"><stop offset="0" stop-color="#e52d27"/><stop offset="1" stop-color="#bf171d"/></linearGradient></defs><path d="M405.23 491.7l276-143-276-144z" fill="#fff"/><path data-name="The Sharpness" d="M405.23 204.7l242 161.63 34-17.63z" fill="#420000" fill-rule="evenodd" opacity=".12"/><path d="M1013 156.28s-10-70.39-40.58-101.38C933.58 14.21 890 14 870.07 11.63 727.13 1.3 512.72 1.3 512.72 1.3h-.44s-214.41 0-357.35 10.33C135 14 91.44 14.21 52.58 54.9 22 85.89 12 156.28 12 156.28S1.77 238.94 1.77 321.6v77.49C1.77 481.75 12 564.41 12 564.41S22 634.8 52.58 665.8c38.86 40.68 89.9 39.4 112.63 43.66 81.72 7.84 347.29 10.26 347.29 10.26s214.63-.32 357.57-10.66c20-2.38 63.5-2.58 102.35-43.27C1003 634.8 1013 564.41 1013 564.41s10.2-82.66 10.2-165.32V321.6c.02-82.66-10.2-165.32-10.2-165.32zM407 493V206l276 144z" transform="translate(-1.77 -1.3)" fill="url(#a)"/></svg>